<?xml version="1.0" encoding="utf-8"?>
<!-- Generator: Adobe Illustrator 16.0.0, SVG Export Plug-In . SVG Version: 6.00 Build 0)  -->
<!DOCTYPE svg PUBLIC "-//W3C//DTD SVG 1.1//EN" "http://www.w3.org/Graphics/SVG/1.1/DTD/svg11.dtd">
<svg version="1.1" id="Layer_1" xmlns="http://www.w3.org/2000/svg" xmlns:xlink="http://www.w3.org/1999/xlink" x="0px" y="0px"
	 width="400px" height="150px" viewBox="0 0 400 150" enable-background="new 0 0 400 150" xml:space="preserve">
<g>
	<path fill="#FFFFFF" d="M38.31,95.752c-2.184,1.275-4.127,2.388-5.833,3.343s-3.223,1.752-4.554,2.387
		c-1.33,0.638-2.512,1.115-3.546,1.434c-1.035,0.318-1.973,0.477-2.814,0.477c-1.728,0-3.251-0.521-4.569-1.569
		c-1.319-1.044-2.422-2.552-3.308-4.517c-0.887-1.968-1.553-4.349-1.995-7.146c-0.443-2.797-0.666-5.945-0.666-9.448
		c0-1.363,0.056-2.818,0.171-4.364c0.113-1.547,0.272-3.082,0.477-4.605c-0.682-0.09-1.21-0.176-1.585-0.256
		c-0.375-0.079-0.774-0.158-1.195-0.238c-0.42-0.079-0.955-0.165-1.602-0.256c-0.648-0.091-1.585-0.205-2.815-0.341
		c-0.545-0.068-0.965-0.199-1.261-0.393c-0.294-0.193-0.512-0.42-0.647-0.682c-0.136-0.261-0.216-0.534-0.239-0.818
		c-0.022-0.284-0.034-0.528-0.034-0.733c0-0.455,0.222-0.801,0.665-1.04s1.012-0.415,1.705-0.528
		c0.694-0.114,1.455-0.176,2.286-0.188c0.829-0.012,1.624-0.005,2.387,0.017c0.762,0.022,1.443,0.04,2.046,0.051
		c0.602,0.012,1.017-0.005,1.245-0.051c0.614-3.07,1.393-6.042,2.336-8.919c0.943-2.875,2-5.434,3.172-7.673
		c1.17-2.239,2.449-4.035,3.837-5.389c1.386-1.352,2.841-2.029,4.366-2.029c0.977,0,1.869,0.273,2.677,0.818
		c0.806,0.546,1.493,1.273,2.062,2.183c0.569,0.91,1.006,1.973,1.313,3.189c0.308,1.217,0.46,2.485,0.46,3.803
		c0,1.114-0.159,2.291-0.477,3.53c-0.318,1.239-0.75,2.501-1.296,3.786c-0.545,1.284-1.188,2.586-1.927,3.905
		c-0.738,1.319-1.517,2.626-2.336,3.922c0.205,0.023,0.546,0.04,1.022,0.051c0.479,0.011,1.029,0.029,1.655,0.051
		c0.625,0.022,1.301,0.051,2.03,0.085c0.727,0.033,1.431,0.063,2.113,0.085c0.683,0.023,1.319,0.045,1.91,0.068
		c0.59,0.024,1.08,0.046,1.467,0.069c0.454,0.022,0.785,0.25,0.989,0.682c0.205,0.433,0.308,0.978,0.308,1.637
		c0,0.796-0.229,1.445-0.683,1.944c-0.455,0.5-0.956,0.75-1.501,0.75H23.03c-0.66,0.91-1.324,1.802-1.995,2.677
		c-0.671,0.875-1.29,1.665-1.858,2.37c-0.091,1.41-0.171,2.797-0.238,4.161c-0.023,0.592-0.046,1.199-0.068,1.824
		c-0.023,0.625-0.046,1.244-0.068,1.858c-0.023,0.614-0.04,1.206-0.051,1.774c-0.012,0.567-0.017,1.092-0.017,1.567
		c0,1.229,0.113,2.264,0.34,3.104c0.227,0.842,0.558,1.529,0.99,2.064c0.431,0.533,0.96,0.92,1.585,1.159
		c0.625,0.237,1.324,0.356,2.098,0.356c0.477,0,1.074-0.113,1.79-0.339c0.717-0.228,1.501-0.542,2.353-0.939
		c0.853-0.398,1.751-0.869,2.694-1.415c0.943-0.546,1.876-1.143,2.797-1.791c0.92-0.648,1.801-1.33,2.643-2.046
		c0.84-0.715,1.603-1.449,2.286-2.2V95.752z M27.396,52.576c0-0.25-0.017-0.528-0.051-0.835c-0.034-0.307-0.107-0.597-0.22-0.87
		c-0.115-0.273-0.291-0.5-0.53-0.682c-0.238-0.182-0.573-0.273-1.005-0.273c-0.592,0-1.188,0.523-1.79,1.569
		c-0.603,1.045-1.183,2.381-1.739,4.007c-0.558,1.625-1.081,3.417-1.569,5.372c-0.489,1.956-0.938,3.854-1.347,5.695
		c0.342,0.046,0.682,0.085,1.023,0.119c0.341,0.034,0.693,0.074,1.057,0.12c0.682-1.16,1.392-2.416,2.132-3.769
		c0.738-1.352,1.403-2.683,1.994-3.99c0.592-1.308,1.08-2.529,1.467-3.667C27.203,54.236,27.396,53.304,27.396,52.576z"/>
	<path fill="#FFFFFF" d="M49.019,82.179c0.931-1.229,1.978-2.546,3.138-3.956c1.16-1.409,2.364-2.723,3.615-3.939
		c1.249-1.216,2.494-2.228,3.734-3.035c1.239-0.807,2.404-1.211,3.496-1.211c0.273,0,0.581,0.051,0.921,0.154
		c0.34,0.102,0.665,0.29,0.972,0.563c0.308,0.273,0.564,0.653,0.768,1.142c0.205,0.489,0.307,1.12,0.307,1.893
		c0,1.546-0.216,3.052-0.647,4.519c-0.432,1.466-0.904,2.933-1.416,4.399c-0.511,1.467-0.977,2.96-1.398,4.484
		c-0.422,1.523-0.631,3.115-0.631,4.774c0,0.909,0.136,1.638,0.41,2.184c0.272,0.545,0.625,0.817,1.057,0.817
		c0.545,0,1.125-0.114,1.739-0.34c0.614-0.228,1.228-0.522,1.841-0.888c0.614-0.362,1.217-0.779,1.808-1.244
		c0.592-0.466,1.148-0.949,1.672-1.449c1.25-1.16,2.478-2.479,3.683-3.956l0.58,9.07c-0.409,0.319-0.926,0.717-1.552,1.195
		c-0.625,0.477-1.318,0.983-2.08,1.517c-0.763,0.535-1.586,1.074-2.473,1.62c-0.887,0.547-1.779,1.029-2.678,1.449
		c-0.897,0.422-1.796,0.768-2.694,1.041c-0.898,0.272-1.756,0.408-2.575,0.408c-1.251,0-2.335-0.335-3.257-1.005
		c-0.919-0.672-1.676-1.522-2.267-2.559c-0.592-1.034-1.035-2.166-1.33-3.394c-0.296-1.228-0.443-2.387-0.443-3.478
		c0-0.728,0.096-1.541,0.289-2.44c0.193-0.898,0.432-1.801,0.716-2.711c0.285-0.908,0.604-1.796,0.956-2.659
		c0.352-0.864,0.683-1.638,0.989-2.318c0.307-0.684,0.573-1.24,0.801-1.673c0.228-0.432,0.375-0.681,0.443-0.749l-0.716-0.103
		c-0.387,0.25-1.04,0.887-1.961,1.908c-0.92,1.024-1.96,2.314-3.121,3.872c-1.159,1.558-2.359,3.309-3.598,5.253
		c-1.24,1.943-2.359,3.95-3.359,6.02c-0.5,1.022-0.909,1.914-1.228,2.676c-0.319,0.763-0.631,1.389-0.937,1.876
		c-0.308,0.489-0.643,0.859-1.007,1.109c-0.364,0.251-0.83,0.374-1.397,0.374c-0.75,0-1.343-0.216-1.774-0.647
		c-0.432-0.432-0.762-1.006-0.989-1.722c-0.227-0.716-0.375-1.529-0.443-2.438s-0.103-1.841-0.103-2.797
		c0-1.523,0.017-3.519,0.051-5.985s0.142-5.2,0.323-8.201c0.182-3.003,0.444-6.163,0.785-9.483c0.342-3.319,0.824-6.599,1.45-9.839
		s1.41-6.332,2.354-9.276c0.943-2.944,2.092-5.536,3.445-7.776c1.352-2.239,2.938-4.018,4.757-5.337
		c1.819-1.318,3.911-1.978,6.275-1.978c1.228,0,2.235,0.182,3.018,0.545c0.785,0.364,1.41,0.876,1.876,1.535
		c0.466,0.66,0.79,1.449,0.972,2.371c0.182,0.921,0.272,1.95,0.272,3.086c0,1.683-0.238,3.547-0.716,5.593
		c-0.478,2.047-1.108,4.173-1.893,6.378c-0.784,2.206-1.677,4.439-2.676,6.702c-1,2.263-2.024,4.456-3.069,6.582
		c-1.047,2.126-2.076,4.133-3.086,6.02c-1.013,1.887-1.905,3.547-2.678,4.979L49.019,82.179z M52.054,61.102
		c1.341-3.479,2.313-6.412,2.916-8.799c0.603-2.387,0.904-4.149,0.904-5.286c0-1.728-0.228-2.592-0.682-2.592
		c-0.592,0-1.467,0.967-2.626,2.899c-1.16,1.932-2.524,4.741-4.092,8.423c-0.387,1.251-0.746,2.547-1.075,3.889
		c-0.33,1.342-0.625,2.677-0.886,4.007c-0.262,1.33-0.5,2.638-0.716,3.922c-0.218,1.285-0.404,2.507-0.563,3.666
		c-0.387,2.706-0.682,5.355-0.887,7.947c0.614-1.433,1.284-2.99,2.013-4.673c0.727-1.683,1.444-3.348,2.147-4.997
		c0.706-1.648,1.371-3.206,1.996-4.672C51.127,63.371,51.645,62.125,52.054,61.102z"/>
	<path fill="#FFFFFF" d="M83.737,103.392c-2.138,0-4.008-0.387-5.611-1.159c-1.603-0.772-2.938-1.812-4.006-3.12
		c-1.069-1.307-1.871-2.818-2.404-4.535c-0.535-1.717-0.802-3.519-0.802-5.407c0-1.271,0.125-2.619,0.375-4.041
		c0.25-1.42,0.631-2.813,1.143-4.179c0.513-1.362,1.154-2.665,1.927-3.904c0.773-1.237,1.677-2.33,2.712-3.273
		c1.035-0.943,2.194-1.693,3.479-2.251c1.283-0.557,2.71-0.835,4.28-0.835c1.272,0,2.456,0.205,3.546,0.614
		c1.091,0.409,2.04,0.984,2.848,1.722c0.807,0.74,1.438,1.631,1.893,2.677c0.454,1.046,0.682,2.218,0.682,3.514
		c0,1.408-0.348,2.819-1.041,4.227c-0.693,1.411-1.653,2.741-2.881,3.993c-1.228,1.249-2.69,2.363-4.382,3.341
		c-1.694,0.978-3.531,1.739-5.509,2.285c0.342,0.613,0.677,1.126,1.007,1.534c0.33,0.409,0.665,0.728,1.006,0.955
		c0.341,0.228,0.699,0.387,1.075,0.479c0.375,0.09,0.778,0.135,1.211,0.135c1.364,0,2.802-0.271,4.314-0.817
		c1.512-0.545,2.983-1.228,4.417-2.047c1.433-0.818,2.785-1.711,4.058-2.678c1.274-0.965,2.354-1.881,3.24-2.745l4.399,4.57
		c-2,2.07-4.126,3.9-6.377,5.491c-0.978,0.683-2.028,1.353-3.155,2.012c-1.125,0.66-2.308,1.245-3.546,1.758
		c-1.24,0.511-2.524,0.92-3.854,1.228C86.448,103.238,85.101,103.392,83.737,103.392z M79.201,87.363
		c0.818,0,1.709-0.209,2.676-0.632c0.967-0.42,1.865-0.96,2.695-1.62c0.83-0.658,1.529-1.375,2.098-2.147
		c0.567-0.773,0.853-1.522,0.853-2.252c0-1.022-0.188-1.863-0.564-2.522c-0.375-0.659-0.834-0.991-1.38-0.991
		c-0.979,0-1.814,0.184-2.507,0.548c-0.694,0.363-1.274,0.835-1.74,1.415c-0.466,0.579-0.841,1.239-1.125,1.978
		c-0.285,0.74-0.5,1.483-0.648,2.234c-0.147,0.75-0.244,1.478-0.289,2.184C79.223,86.261,79.201,86.863,79.201,87.363z"/>
	<path fill="#FFFFFF" d="M127.356,41.219c3.82,0,7.167,0.518,10.045,1.551c2.875,1.035,5.269,2.411,7.178,4.127
		c1.91,1.717,3.348,3.689,4.314,5.917c0.967,2.229,1.45,4.536,1.45,6.923c0,2.229-0.432,4.434-1.296,6.616
		c-0.864,2.183-2.167,4.195-3.905,6.037c-1.739,1.841-3.934,3.433-6.582,4.774c-2.649,1.342-5.759,2.285-9.329,2.831
		c-0.067,1.659-0.124,3.183-0.169,4.57c-0.024,0.593-0.047,1.183-0.069,1.773c-0.023,0.592-0.041,1.131-0.051,1.619
		c-0.012,0.491-0.023,0.916-0.034,1.279c-0.012,0.364-0.017,0.613-0.017,0.751c-0.047,1.592-0.233,3.246-0.563,4.962
		c-0.33,1.717-0.808,3.394-1.433,5.029c-0.625,1.639-1.387,3.189-2.285,4.657c-0.898,1.467-1.944,2.75-3.138,3.854
		c-1.193,1.103-2.53,1.978-4.008,2.627c-1.478,0.647-3.092,0.971-4.842,0.971c-1.865,0-3.531-0.483-4.997-1.449
		c-1.467-0.968-2.751-2.268-3.854-3.905c-1.104-1.637-2.036-3.524-2.797-5.661s-1.381-4.371-1.858-6.702
		c-0.478-2.33-0.824-4.678-1.04-7.041c-0.216-2.366-0.324-4.593-0.324-6.686c0-3.592,0.329-7.06,0.989-10.402
		c0.659-3.342,1.603-6.474,2.831-9.396c1.227-2.921,2.716-5.587,4.467-7.998c1.751-2.41,3.724-4.479,5.918-6.207
		c2.194-1.727,4.581-3.063,7.161-4.007C121.701,41.691,124.446,41.219,127.356,41.219z M106.895,79.757
		c0,0.933,0.004,2.189,0.017,3.769c0.011,1.582,0.073,3.27,0.188,5.066c0.113,1.795,0.294,3.614,0.546,5.456
		c0.249,1.842,0.618,3.507,1.108,4.996c0.488,1.489,1.102,2.706,1.842,3.649c0.738,0.943,1.666,1.415,2.78,1.415
		c1.159,0,2.148-0.403,2.966-1.211c0.819-0.806,1.501-1.853,2.047-3.138s0.976-2.738,1.296-4.364
		c0.318-1.626,0.557-3.258,0.715-4.895c0.16-1.638,0.261-3.201,0.308-4.689c0.045-1.488,0.068-2.758,0.068-3.803v-1.603
		c-1.888-0.752-3.371-1.411-4.451-1.979c-1.08-0.567-1.893-1.112-2.438-1.637c-0.546-0.522-0.894-1.074-1.041-1.653
		c-0.148-0.58-0.221-1.256-0.221-2.029c0-0.41,0.011-0.813,0.034-1.211c0.022-0.397,0.085-0.75,0.187-1.058
		c0.102-0.307,0.25-0.556,0.444-0.75c0.193-0.193,0.46-0.29,0.801-0.29c0.227,0,0.438,0.045,0.63,0.136
		c0.195,0.091,0.438,0.216,0.734,0.375c0.75,0.41,1.433,0.745,2.047,1.006c0.614,0.262,1.136,0.472,1.569,0.631
		c0.499,0.182,0.954,0.318,1.363,0.409c0-0.295,0.006-0.881,0.018-1.756c0.012-0.875,0.079-1.876,0.205-3.001
		c0.125-1.126,0.335-2.303,0.631-3.53c0.295-1.228,0.727-2.354,1.295-3.377c0.568-1.022,1.307-1.87,2.216-2.541
		c0.91-0.67,2.036-1.006,3.377-1.006c0.409,0,0.83,0.04,1.262,0.119c0.432,0.08,0.824,0.228,1.177,0.443
		c0.353,0.216,0.648,0.506,0.887,0.87c0.238,0.364,0.357,0.83,0.357,1.398c0,0.159-0.006,0.267-0.017,0.324
		c-0.011,0.057-0.018,0.131-0.018,0.221l-2.08,8.765l-0.308,2.695c2.229-0.341,4.149-0.887,5.764-1.637
		c1.614-0.75,2.95-1.637,4.007-2.66c1.057-1.022,1.842-2.148,2.354-3.376c0.511-1.228,0.767-2.49,0.767-3.786
		c0-1.272-0.245-2.575-0.733-3.905c-0.49-1.33-1.337-2.541-2.541-3.631c-1.206-1.092-2.819-1.99-4.842-2.695
		c-2.025-0.704-4.57-1.057-7.64-1.057c-2.297,0-4.377,0.438-6.241,1.313c-1.865,0.875-3.524,2.063-4.98,3.563
		c-1.455,1.501-2.717,3.252-3.786,5.253c-1.068,2.001-1.949,4.132-2.642,6.394c-0.694,2.263-1.206,4.593-1.535,6.992
		C107.059,75.149,106.895,77.485,106.895,79.757z"/>
	<path fill="#FFFFFF" d="M183.869,95.036c-0.523,0.729-1.223,1.581-2.097,2.558c-0.875,0.979-1.859,1.91-2.95,2.798
		c-1.092,0.886-2.263,1.637-3.514,2.251c-1.251,0.613-2.5,0.92-3.752,0.92c-1.5,0-2.75-0.482-3.751-1.449
		c-1-0.967-1.864-2.37-2.592-4.211c-0.545,0.636-1.217,1.283-2.011,1.943c-0.797,0.659-1.666,1.256-2.609,1.791
		c-0.944,0.534-1.927,0.971-2.951,1.312c-1.022,0.341-2.045,0.512-3.069,0.512c-1.091,0-2.154-0.223-3.188-0.665
		c-1.035-0.443-1.949-1.081-2.745-1.91c-0.797-0.83-1.433-1.842-1.91-3.035c-0.479-1.193-0.716-2.541-0.716-4.042
		c0-1.705,0.238-3.456,0.716-5.251c0.477-1.797,1.136-3.554,1.978-5.271c0.841-1.717,1.835-3.336,2.984-4.86
		c1.147-1.522,2.404-2.853,3.769-3.989c1.364-1.137,2.802-2.041,4.314-2.711c1.512-0.67,3.052-1.006,4.622-1.006
		c0.522,0,0.931,0.102,1.228,0.307c0.295,0.204,0.539,0.438,0.733,0.699c0.193,0.261,0.38,0.517,0.563,0.767
		c0.182,0.25,0.409,0.433,0.682,0.545c0.272,0.114,0.551,0.188,0.834,0.223c0.285,0.033,0.575,0.051,0.87,0.051
		c0.25,0,0.506-0.005,0.768-0.018c0.261-0.011,0.516-0.017,0.766-0.017c0.342,0,0.661,0.034,0.956,0.102
		c0.295,0.068,0.556,0.217,0.785,0.443c0.227,0.228,0.402,0.546,0.528,0.955c0.125,0.41,0.188,0.967,0.188,1.672
		c0,1.09-0.114,2.302-0.341,3.632s-0.478,2.693-0.75,4.093c-0.272,1.398-0.523,2.796-0.75,4.194
		c-0.228,1.398-0.341,2.723-0.341,3.974c0,1.067,0.097,1.903,0.291,2.507c0.193,0.602,0.608,0.902,1.245,0.902
		c0.478,0,0.977-0.119,1.5-0.356c0.524-0.239,1.052-0.552,1.587-0.938c0.533-0.386,1.067-0.824,1.602-1.313
		c0.535-0.488,1.04-0.995,1.519-1.517c1.112-1.228,2.239-2.616,3.375-4.161L183.869,95.036z M154.743,92.343
		c0,0.567,0.039,1.119,0.12,1.654c0.079,0.533,0.221,1.012,0.426,1.432c0.205,0.422,0.477,0.763,0.818,1.023
		c0.341,0.261,0.772,0.392,1.296,0.392c0.841,0,1.602-0.363,2.285-1.092c0.682-0.728,1.272-1.602,1.773-2.626
		c0.5-1.022,0.904-2.079,1.21-3.172c0.308-1.091,0.506-2,0.597-2.727l2.081-10.029c-0.932,0-1.842,0.234-2.729,0.701
		c-0.886,0.467-1.722,1.096-2.507,1.892c-0.783,0.797-1.506,1.706-2.165,2.729c-0.66,1.022-1.228,2.097-1.705,3.223
		c-0.479,1.125-0.848,2.257-1.11,3.393C154.874,90.273,154.743,91.343,154.743,92.343z"/>
	<path fill="#FFFFFF" d="M200.58,96.129c-0.818,0.749-1.836,1.551-3.053,2.404c-1.217,0.852-2.529,1.636-3.938,2.353
		c-1.411,0.716-2.848,1.313-4.315,1.79c-1.466,0.477-2.859,0.716-4.177,0.716c-1.183,0-2.177-0.164-2.984-0.494
		c-0.808-0.329-1.462-0.789-1.961-1.381c-0.5-0.59-0.859-1.313-1.074-2.166c-0.217-0.853-0.325-1.79-0.325-2.813
		c0-1.433,0.165-3.097,0.494-4.996c0.33-1.897,0.734-3.865,1.211-5.9c0.479-2.034,0.984-4.063,1.518-6.088
		c0.533-2.022,1.005-3.888,1.416-5.593c0.158-0.59,0.477-1.096,0.954-1.517c0.477-0.421,1.018-0.762,1.621-1.023
		c0.602-0.261,1.228-0.455,1.876-0.58c0.648-0.125,1.232-0.187,1.756-0.187c0.954,0,1.603,0.176,1.944,0.528
		c0.34,0.353,0.511,0.825,0.511,1.416c0,0.5-0.113,1.223-0.341,2.166c-0.228,0.943-0.512,2.012-0.853,3.206
		c-0.342,1.193-0.705,2.478-1.091,3.853c-0.387,1.376-0.75,2.752-1.092,4.126c-0.34,1.377-0.625,2.719-0.852,4.025
		c-0.229,1.309-0.342,2.485-0.342,3.53c0,1.022,0.113,1.836,0.342,2.438c0.227,0.603,0.693,0.903,1.397,0.903
		c0.819,0,1.728-0.283,2.729-0.852c1-0.569,2.012-1.256,3.035-2.064c1.024-0.806,2.023-1.642,3.002-2.507
		c0.976-0.863,1.841-1.602,2.591-2.217V96.129z M185.336,61.068c0-0.522,0.113-1.114,0.34-1.773s0.597-1.279,1.108-1.858
		c0.513-0.58,1.193-1.069,2.046-1.467c0.853-0.397,1.915-0.597,3.189-0.597c0.795,0,1.546,0.092,2.25,0.273
		c0.706,0.183,1.319,0.461,1.843,0.836c0.522,0.375,0.937,0.87,1.245,1.483c0.306,0.614,0.46,1.342,0.46,2.182
		c0,0.773-0.126,1.524-0.376,2.251c-0.25,0.728-0.648,1.375-1.194,1.944c-0.546,0.568-1.234,1.029-2.062,1.381
		c-0.831,0.354-1.826,0.529-2.985,0.529c-2,0-3.479-0.472-4.434-1.416C185.813,63.894,185.336,62.637,185.336,61.068z"/>
	<path fill="#FFFFFF" d="M198.158,96.264c0-1.5,0.092-3.234,0.274-5.199c0.182-1.968,0.409-3.969,0.682-6.004
		c0.272-2.034,0.58-3.995,0.92-5.882c0.341-1.888,0.671-3.502,0.989-4.844c0.25-1.045,0.734-1.921,1.449-2.626
		c0.717-0.704,1.688-1.057,2.916-1.057s2.08,0.375,2.558,1.125c0.479,0.75,0.716,1.751,0.716,3.001c0,0.342-0.034,0.802-0.103,1.381
		c-0.068,0.581-0.152,1.217-0.255,1.91c-0.103,0.694-0.211,1.41-0.323,2.148c-0.114,0.74-0.222,1.421-0.324,2.046
		c-0.104,0.626-0.188,1.172-0.257,1.638c-0.068,0.467-0.103,0.778-0.103,0.938h0.684c0.136-0.249,0.351-0.653,0.646-1.211
		c0.296-0.557,0.638-1.198,1.024-1.926c0.387-0.727,0.801-1.496,1.244-2.303c0.443-0.806,0.858-1.581,1.245-2.319
		c0.387-0.737,0.738-1.392,1.057-1.96c0.318-0.569,0.558-0.99,0.717-1.263c0.728-1.228,1.557-2.069,2.489-2.523
		s1.967-0.682,3.104-0.682c1.136,0,2.04,0.477,2.712,1.432c0.67,0.955,1.007,2.274,1.007,3.955c0,0.252-0.052,0.672-0.153,1.263
		c-0.103,0.592-0.234,1.296-0.394,2.115c-0.158,0.818-0.335,1.717-0.528,2.693c-0.193,0.979-0.37,1.979-0.528,3.001
		c-0.158,1.023-0.291,2.035-0.393,3.036c-0.103,1.001-0.155,1.922-0.155,2.763c0,1.409,0.178,2.568,0.53,3.479
		s0.903,1.363,1.655,1.363c0.339,0,0.731-0.102,1.176-0.306c0.442-0.204,0.921-0.473,1.433-0.802c0.511-0.33,1.033-0.71,1.567-1.143
		c0.535-0.432,1.064-0.874,1.587-1.33c1.205-1.068,2.468-2.272,3.785-3.614l0.579,7.638l-1.704,1.296
		c-0.933,0.706-1.882,1.411-2.849,2.115c-0.967,0.706-1.972,1.336-3.019,1.893c-1.045,0.558-2.136,1.012-3.273,1.365
		c-1.137,0.352-2.331,0.527-3.58,0.527c-1.25,0-2.302-0.904-3.155-2.711c-0.854-1.808-1.279-4.45-1.279-7.93
		c0-1.363,0.093-2.836,0.272-4.415c0.183-1.581,0.41-3.279,0.684-5.1h-0.547l-8.936,17.735c-0.454,0.932-0.967,1.567-1.534,1.909
		c-0.568,0.341-1.228,0.511-1.979,0.511c-0.932,0-1.681-0.198-2.25-0.596c-0.569-0.398-1.005-0.933-1.313-1.604
		c-0.307-0.67-0.512-1.433-0.614-2.285C198.209,98.055,198.158,97.175,198.158,96.264z"/>
	<path fill="#FFFFFF" d="M258.149,95.752c-2.183,1.275-4.128,2.388-5.834,3.343c-1.704,0.955-3.223,1.752-4.553,2.387
		c-1.33,0.638-2.511,1.115-3.546,1.434c-1.034,0.318-1.972,0.477-2.814,0.477c-1.728,0-3.251-0.521-4.568-1.569
		c-1.321-1.044-2.422-2.552-3.309-4.517c-0.888-1.968-1.552-4.349-1.995-7.146s-0.664-5.945-0.664-9.448
		c0-1.363,0.056-2.818,0.17-4.364c0.113-1.547,0.271-3.082,0.477-4.605c-0.681-0.09-1.21-0.176-1.585-0.256
		c-0.374-0.079-0.774-0.158-1.195-0.238c-0.419-0.079-0.954-0.165-1.601-0.256c-0.649-0.091-1.587-0.205-2.813-0.341
		c-0.548-0.068-0.967-0.199-1.263-0.393c-0.295-0.193-0.513-0.42-0.647-0.682c-0.138-0.261-0.217-0.534-0.24-0.818
		c-0.021-0.284-0.033-0.528-0.033-0.733c0-0.455,0.222-0.801,0.665-1.04c0.444-0.239,1.013-0.415,1.705-0.528
		c0.694-0.114,1.455-0.176,2.285-0.188c0.829-0.012,1.626-0.005,2.387,0.017c0.762,0.022,1.443,0.04,2.046,0.051
		c0.604,0.012,1.018-0.005,1.246-0.051c0.613-3.07,1.392-6.042,2.334-8.919c0.944-2.875,2.002-5.434,3.173-7.673
		c1.17-2.239,2.448-4.035,3.837-5.389c1.387-1.352,2.842-2.029,4.365-2.029c0.978,0,1.869,0.273,2.677,0.818
		c0.808,0.546,1.496,1.273,2.065,2.183c0.565,0.91,1.006,1.973,1.311,3.189c0.308,1.217,0.461,2.485,0.461,3.803
		c0,1.114-0.158,2.291-0.479,3.53c-0.317,1.239-0.749,2.501-1.293,3.786c-0.547,1.284-1.189,2.586-1.929,3.905
		c-0.74,1.319-1.519,2.626-2.336,3.922c0.205,0.023,0.544,0.04,1.023,0.051c0.478,0.011,1.026,0.029,1.654,0.051
		c0.625,0.022,1.301,0.051,2.028,0.085c0.728,0.033,1.433,0.063,2.114,0.085c0.684,0.023,1.319,0.045,1.91,0.068
		c0.591,0.024,1.079,0.046,1.467,0.069c0.454,0.022,0.784,0.25,0.988,0.682c0.206,0.433,0.309,0.978,0.309,1.637
		c0,0.796-0.228,1.445-0.684,1.944c-0.454,0.5-0.955,0.75-1.499,0.75h-13.098c-0.658,0.91-1.324,1.802-1.996,2.677
		c-0.669,0.875-1.289,1.665-1.857,2.37c-0.09,1.41-0.171,2.797-0.238,4.161c-0.022,0.592-0.048,1.199-0.069,1.824
		c-0.022,0.625-0.046,1.244-0.068,1.858c-0.021,0.614-0.039,1.206-0.051,1.774c-0.013,0.567-0.018,1.092-0.018,1.567
		c0,1.229,0.114,2.264,0.342,3.104c0.228,0.842,0.557,1.529,0.988,2.064c0.433,0.533,0.962,0.92,1.587,1.159
		c0.625,0.237,1.325,0.356,2.097,0.356c0.479,0,1.074-0.113,1.791-0.339c0.716-0.228,1.501-0.542,2.354-0.939
		c0.852-0.398,1.749-0.869,2.695-1.415c0.94-0.546,1.874-1.143,2.796-1.791c0.921-0.648,1.802-1.33,2.644-2.046
		c0.84-0.715,1.602-1.449,2.285-2.2V95.752z M247.234,52.576c0-0.25-0.018-0.528-0.052-0.835c-0.031-0.307-0.107-0.597-0.22-0.87
		c-0.114-0.273-0.29-0.5-0.53-0.682c-0.239-0.182-0.572-0.273-1.005-0.273c-0.591,0-1.188,0.523-1.792,1.569
		c-0.603,1.045-1.181,2.381-1.737,4.007c-0.56,1.625-1.081,3.417-1.569,5.372c-0.491,1.956-0.938,3.854-1.348,5.695
		c0.342,0.046,0.682,0.085,1.023,0.119c0.342,0.034,0.692,0.074,1.057,0.12c0.683-1.16,1.394-2.416,2.134-3.769
		c0.736-1.352,1.402-2.683,1.993-3.99s1.079-2.529,1.467-3.667C247.041,54.236,247.234,53.304,247.234,52.576z"/>
	<path fill="#FFFFFF" d="M314.047,77.814c-0.798,2.795-1.432,5.404-1.911,7.826c-0.476,2.421-0.714,4.52-0.714,6.292
		c0,1.546,0.321,2.757,0.971,3.633c0.646,0.875,1.723,1.312,3.222,1.312c0.569,0,1.253-0.165,2.048-0.494
		c0.796-0.33,1.704-0.848,2.729-1.552c1.023-0.704,2.166-1.614,3.428-2.729s2.665-2.444,4.212-3.99
		c0.066,0.137,0.203,0.454,0.408,0.954c0.184,0.434,0.438,1.087,0.769,1.962c0.329,0.875,0.789,2.075,1.381,3.599
		c-1.705,1.796-3.416,3.376-5.132,4.739c-1.719,1.364-3.391,2.507-5.014,3.429c-1.628,0.92-3.186,1.614-4.674,2.081
		c-1.489,0.464-2.858,0.698-4.108,0.698c-1.433,0-2.763-0.268-3.99-0.802s-2.292-1.312-3.19-2.336s-1.608-2.279-2.131-3.77
		c-0.521-1.488-0.782-3.188-0.782-5.097c0-0.661,0.065-1.49,0.202-2.49c0.136-1.001,0.337-2.138,0.598-3.41
		c0.261-1.274,0.578-2.667,0.954-4.18c0.376-1.511,0.791-3.108,1.244-4.79c-3.046,0.318-5.967,0.613-8.764,0.887
		c-2.798,0.272-5.582,0.533-8.355,0.784c-0.637,1.908-1.269,3.78-1.894,5.609c-0.625,1.831-1.228,3.547-1.807,5.149
		c-0.58,1.604-1.115,3.07-1.604,4.399c-0.49,1.33-0.902,2.462-1.244,3.394c-1.116,2.411-2.2,4.115-3.259,5.117
		c-1.057,1-2.006,1.501-2.847,1.501c-0.546,0-1.081-0.093-1.603-0.273c-0.523-0.183-0.988-0.443-1.398-0.785
		c-0.411-0.341-0.733-0.751-0.973-1.228c-0.238-0.478-0.357-1.012-0.357-1.604c0-0.363,0.046-0.716,0.136-1.058
		c0.954-3.478,1.994-6.838,3.122-10.078c1.125-3.238,2.268-6.394,3.427-9.464c-1.252,0-2.45-0.095-3.598-0.288
		c-1.149-0.193-2.212-0.529-3.189-1.008c-0.978-0.478-1.848-1.136-2.61-1.977c-0.761-0.843-1.391-1.912-1.891-3.207
		c-0.091-0.409-0.167-0.772-0.223-1.09c-0.056-0.318-0.085-0.637-0.085-0.956c0-1,0.352-1.5,1.057-1.5
		c0.432,0,0.91,0.232,1.433,0.699s1.193,1.211,2.013,2.233c1.067-0.045,2.137-0.079,3.206-0.102
		c1.069-0.022,2.216-0.034,3.443-0.034h3.275c0.817-2.115,1.596-4.154,2.336-6.122c0.737-1.966,1.425-3.893,2.062-5.78
		c0.386-1.206,0.692-2.411,0.92-3.615c0.228-1.206,0.342-2.354,0.342-3.445c0-0.886-0.08-1.706-0.239-2.455
		c-0.159-0.75-0.42-1.387-0.783-1.91c-0.364-0.522-0.829-0.932-1.398-1.228c-0.568-0.295-1.273-0.443-2.113-0.443
		c-0.684,0-1.473,0.114-2.37,0.341c-0.898,0.228-1.895,0.597-2.985,1.108c-1.091,0.512-2.279,1.182-3.563,2.012
		c-1.286,0.831-2.678,1.859-4.179,3.086c-0.522,0.432-1.006,0.739-1.45,0.921c-0.441,0.182-0.847,0.273-1.21,0.273
		c-0.181,0-0.318-0.301-0.408-0.904c-0.092-0.602-0.136-1.346-0.136-2.233c0-1.182,0.278-2.307,0.834-3.376
		c0.557-1.069,1.301-2.051,2.233-2.95s2.006-1.716,3.225-2.456c1.216-0.738,2.465-1.364,3.751-1.876
		c1.284-0.511,2.562-0.903,3.837-1.176c1.271-0.273,2.443-0.41,3.512-0.41c1.593,0,3.115,0.217,4.569,0.648
		c1.455,0.433,2.734,1.126,3.837,2.081c1.104,0.955,1.98,2.194,2.627,3.717c0.649,1.523,0.971,3.376,0.971,5.559
		c0,1.023-0.119,2.274-0.356,3.751c-0.239,1.479-0.563,3.099-0.974,4.861c-0.407,1.762-0.891,3.638-1.446,5.627
		c-0.561,1.99-1.155,4.02-1.792,6.088c2.34-0.159,4.979-0.318,7.913-0.478c2.932-0.159,5.877-0.317,8.833-0.477
		c1.159-3.797,2.438-7.726,3.836-11.784c1.399-4.059,2.881-8.043,4.45-11.954c0.522-1.296,1.21-2.331,2.064-3.104
		c0.853-0.772,1.858-1.159,3.018-1.159c0.479,0,0.937,0.068,1.381,0.205c0.444,0.137,0.835,0.347,1.177,0.631
		c0.342,0.285,0.607,0.648,0.8,1.091c0.193,0.443,0.291,0.96,0.291,1.552c0,0.522-0.034,1.131-0.103,1.825s-0.249,1.438-0.544,2.233
		c-0.525,1.41-1.082,2.916-1.672,4.519c-0.591,1.604-1.189,3.251-1.792,4.946c-0.601,1.694-1.203,3.428-1.806,5.201
		c-0.604,1.773-1.177,3.536-1.723,5.286c1.433-0.09,2.682-0.176,3.751-0.256c1.068-0.079,1.877-0.142,2.421-0.187
		c0.251-0.022,0.483-0.04,0.7-0.051c0.215-0.011,0.415-0.018,0.596-0.018c0.684,0,1.234,0.069,1.655,0.205
		c0.42,0.137,0.749,0.33,0.988,0.58c0.239,0.25,0.405,0.546,0.495,0.887c0.091,0.341,0.138,0.728,0.138,1.16
		c0,0.478-0.103,0.875-0.309,1.193c-0.204,0.318-0.461,0.575-0.766,0.768c-0.308,0.193-0.633,0.329-0.975,0.41
		c-0.339,0.079-0.659,0.129-0.953,0.152c-0.638,0.068-1.092,0.12-1.365,0.153c-0.273,0.034-0.467,0.058-0.578,0.068
		c-0.114,0.012-0.188,0.024-0.222,0.033c-0.035,0.013-0.12,0.024-0.257,0.035c-0.138,0.012-0.376,0.028-0.716,0.051
		c-0.341,0.024-0.866,0.068-1.569,0.136c-0.817,0.093-1.62,0.171-2.404,0.24C315.598,77.678,314.818,77.746,314.047,77.814z"/>
	<path fill="#FFFFFF" d="M354.599,72.869c0,0.614-0.068,1.449-0.205,2.506s-0.312,2.217-0.53,3.479
		c-0.217,1.261-0.449,2.562-0.697,3.905c-0.252,1.341-0.483,2.592-0.701,3.751c-0.215,1.16-0.39,2.177-0.526,3.053
		c-0.138,0.875-0.205,1.483-0.205,1.824c0,0.637,0.009,1.223,0.034,1.756c0.022,0.535,0.09,1,0.204,1.398
		c0.112,0.397,0.289,0.706,0.528,0.922s0.585,0.323,1.039,0.323c0.501,0,1.11-0.125,1.825-0.374
		c0.716-0.251,1.478-0.587,2.285-1.007c0.808-0.421,1.631-0.898,2.473-1.433s1.643-1.097,2.404-1.688
		c0.762-0.591,1.454-1.177,2.082-1.757c0.624-0.579,1.13-1.12,1.516-1.62c0,0.752,0.007,1.432,0.018,2.046
		c0.012,0.614,0.016,1.2,0.016,1.758c0,0.557,0.009,1.132,0.018,1.722c0.013,0.591,0.018,1.252,0.018,1.979
		c-0.5,0.5-1.12,1.034-1.858,1.602c-0.738,0.569-1.557,1.137-2.454,1.705c-0.898,0.568-1.854,1.114-2.866,1.638
		c-1.013,0.522-2.028,0.983-3.053,1.381c-1.023,0.398-2.034,0.716-3.034,0.955c-1.001,0.239-1.933,0.358-2.798,0.358
		c-0.863,0-1.603-0.171-2.216-0.513c-0.615-0.34-1.142-0.817-1.586-1.432c-0.445-0.614-0.818-1.348-1.125-2.2
		c-0.309-0.853-0.574-1.802-0.802-2.847c-0.819,1.069-1.684,2.051-2.592,2.949c-0.91,0.898-1.837,1.677-2.779,2.336
		c-0.944,0.66-1.899,1.177-2.866,1.552s-1.903,0.563-2.813,0.563c-0.75,0-1.455-0.125-2.113-0.376
		c-0.659-0.249-1.246-0.67-1.758-1.263c-0.511-0.59-0.916-1.368-1.211-2.336c-0.296-0.965-0.441-2.164-0.441-3.597
		c0-1.752,0.209-3.979,0.629-6.686c0.423-2.704,0.94-5.798,1.553-9.276c0.046-0.34,0.131-0.801,0.256-1.382
		c0.125-0.578,0.296-1.21,0.511-1.892c0.217-0.684,0.483-1.376,0.803-2.081c0.317-0.704,0.693-1.341,1.125-1.91
		c0.433-0.567,0.938-1.034,1.519-1.398c0.579-0.364,1.232-0.557,1.96-0.58c1.205,0.045,2.07,0.199,2.592,0.46
		c0.522,0.262,0.783,0.585,0.783,0.972c-0.202,1.206-0.424,2.547-0.664,4.024c-0.239,1.479-0.482,2.969-0.731,4.468
		c-0.251,1.501-0.491,2.963-0.718,4.384c-0.228,1.42-0.432,2.688-0.613,3.802c-0.183,1.114-0.324,2.013-0.427,2.695
		c-0.102,0.682-0.153,1.034-0.153,1.057c0,0.41,0.039,0.802,0.119,1.177c0.081,0.375,0.198,0.711,0.359,1.007
		c0.158,0.294,0.364,0.534,0.612,0.716c0.252,0.183,0.547,0.272,0.889,0.272c0.498,0,1.011-0.131,1.532-0.392
		c0.524-0.262,1.018-0.638,1.484-1.126c0.466-0.489,0.881-1.092,1.245-1.808c0.363-0.716,0.637-1.528,0.819-2.439l3.376-17.324
		c0.112-0.546,0.573-1.006,1.382-1.381c0.806-0.375,1.72-0.562,2.745-0.562c1.159,0,2.08,0.205,2.761,0.614
		C354.257,71.708,354.599,72.232,354.599,72.869z"/>
	<path fill="#FFFFFF" d="M372.946,75.938c1.273-1.591,2.438-2.87,3.495-3.836c1.057-0.966,2.108-1.449,3.155-1.449
		c1.34,0,2.534,0.296,3.581,0.886c1.045,0.591,1.933,1.376,2.66,2.354s1.284,2.103,1.67,3.375c0.388,1.273,0.581,2.604,0.581,3.991
		c0,1.159-0.046,2.257-0.138,3.291c-0.09,1.034-0.256,2.046-0.493,3.035c-0.238,0.989-0.567,1.974-0.99,2.949
		c-0.42,0.979-0.972,1.99-1.652,3.037c0.817-0.479,1.647-0.943,2.489-1.399c0.84-0.455,1.688-0.955,2.541-1.5
		c0.852-0.547,1.708-1.154,2.575-1.826c0.861-0.669,1.75-1.46,2.658-2.369l2.626,5.627c-1.249,1.138-2.494,2.126-3.734,2.968
		c-1.237,0.842-2.512,1.574-3.819,2.199c-1.307,0.625-2.671,1.165-4.092,1.62c-1.422,0.455-2.928,0.864-4.521,1.228
		c-0.386,0.387-0.914,0.773-1.585,1.159c-0.67,0.387-1.336,0.739-1.994,1.058c-0.75,0.364-1.558,0.717-2.422,1.057h-0.852
		c-1.934,0-3.849-0.267-5.748-0.801c-1.898-0.534-3.62-1.131-5.168-1.79c-1.796-0.751-3.513-1.615-5.149-2.593
		c0.068-1.842,0.205-3.922,0.41-6.241c0.183-2,0.432-4.358,0.749-7.077c0.319-2.717,0.752-5.745,1.297-9.088
		c0.362-2.229,0.819-4.712,1.363-7.452c0.548-2.74,1.189-5.513,1.929-8.321c0.736-2.808,1.569-5.536,2.489-8.185
		s1.943-5.008,3.068-7.077c1.128-2.069,2.355-3.729,3.684-4.979c1.33-1.25,2.768-1.876,4.314-1.876c1.728,0,3.114,0.295,4.162,0.887
		c1.045,0.591,1.852,1.393,2.421,2.404c0.568,1.012,0.942,2.2,1.125,3.564c0.181,1.365,0.273,2.82,0.273,4.365
		c0,2.161-0.405,4.388-1.21,6.685c-0.809,2.297-1.86,4.586-3.157,6.872c-1.295,2.285-2.744,4.519-4.346,6.702
		c-1.604,2.182-3.202,4.24-4.795,6.172L372.946,75.938z M376.017,78.427c-0.798,0-1.594,0.167-2.39,0.496
		c-0.795,0.329-1.533,0.842-2.217,1.534c-0.68,0.694-1.284,1.58-1.806,2.659c-0.524,1.081-0.91,2.383-1.159,3.905
		c-0.206,1.229-0.376,2.359-0.513,3.395s-0.252,1.948-0.342,2.745c-0.091,0.91-0.171,1.762-0.239,2.558
		c0.752,0.228,1.501,0.42,2.253,0.58c0.659,0.136,1.352,0.262,2.079,0.375c0.728,0.114,1.421,0.17,2.08,0.17
		c0.773,0,1.479-0.227,2.116-0.683c0.634-0.454,1.203-1.062,1.703-1.824c0.5-0.762,0.933-1.631,1.296-2.608
		c0.364-0.978,0.659-1.994,0.889-3.051c0.227-1.06,0.396-2.105,0.511-3.139c0.114-1.035,0.171-1.984,0.171-2.848
		c0-0.569-0.063-1.108-0.188-1.621c-0.124-0.512-0.352-0.96-0.681-1.348c-0.329-0.386-0.785-0.697-1.365-0.938
		C377.634,78.546,376.902,78.427,376.017,78.427z M379.358,47.188c0-0.09-0.018-0.284-0.052-0.58s-0.115-0.603-0.239-0.921
		c-0.125-0.318-0.301-0.603-0.527-0.853c-0.229-0.25-0.534-0.375-0.922-0.375c-0.455,0-0.925,0.324-1.416,0.972
		c-0.488,0.648-0.972,1.523-1.448,2.626c-0.478,1.103-0.944,2.376-1.397,3.819c-0.457,1.445-0.898,2.957-1.331,4.536
		c-0.432,1.581-0.837,3.189-1.21,4.826c-0.376,1.637-0.718,3.189-1.022,4.655c-0.308,1.466-0.576,2.808-0.804,4.024
		c-0.227,1.217-0.41,2.2-0.544,2.951c0.612-1.182,1.301-2.41,2.062-3.684c0.762-1.273,1.527-2.597,2.301-3.974
		c0.774-1.375,1.531-2.784,2.268-4.229c0.74-1.443,1.411-2.921,2.014-4.433c0.601-1.512,1.101-3.047,1.502-4.604
		C378.986,50.388,379.243,48.802,379.358,47.188z"/>
</g>
</svg>
